<svg xmlns="http://www.w3.org/2000/svg" width="800" height="500" viewBox="0 0 800 500">
  <defs>
    <linearGradient id="bg1" x1="0%" y1="0%" x2="100%" y2="100%">
      <stop offset="0%" style="stop-color:#0066FF;stop-opacity:1" />
      <stop offset="100%" style="stop-color:#00D4AA;stop-opacity:1" />
    </linearGradient>
    <linearGradient id="glow1" x1="0%" y1="0%" x2="100%" y2="0%">
      <stop offset="0%" style="stop-color:#ffffff;stop-opacity:0" />
      <stop offset="50%" style="stop-color:#ffffff;stop-opacity:0.3" />
      <stop offset="100%" style="stop-color:#ffffff;stop-opacity:0" />
    </linearGradient>
  </defs>
  <rect width="800" height="500" fill="url(#bg1)"/>
  <circle cx="650" cy="150" r="120" fill="rgba(255,255,255,0.1)"/>
  <circle cx="700" cy="350" r="80" fill="rgba(255,255,255,0.08)"/>
  <circle cx="100" cy="400" r="100" fill="rgba(255,255,255,0.05)"/>
  <rect x="50" y="200" width="300" height="20" rx="10" fill="url(#glow1)"/>
  <rect x="50" y="240" width="200" height="15" rx="7" fill="rgba(255,255,255,0.3)"/>
  <rect x="50" y="270" width="250" height="15" rx="7" fill="rgba(255,255,255,0.2)"/>
  <text x="50" y="150" font-family="Arial, sans-serif" font-size="48" font-weight="bold" fill="white">荣誉奖项</text>
  <g transform="translate(550, 250)">
    <polygon points="0,-60 15,-20 60,-20 25,10 35,55 0,30 -35,55 -25,10 -60,-20 -15,-20" fill="rgba(255,255,255,0.9)" stroke="white" stroke-width="2"/>
  </g>
</svg>