<svg xmlns="http://www.w3.org/2000/svg" width="800" height="500" viewBox="0 0 800 500">
  <defs>
    <linearGradient id="bg6" x1="0%" y1="0%" x2="100%" y2="100%">
      <stop offset="0%" style="stop-color:#00A86B;stop-opacity:1" />
      <stop offset="100%" style="stop-color:#00D4AA;stop-opacity:1" />
    </linearGradient>
  </defs>
  <rect width="800" height="500" fill="url(#bg6)"/>
  <circle cx="650" cy="150" r="120" fill="rgba(255,255,255,0.1)"/>
  <circle cx="100" cy="400" r="100" fill="rgba(255,255,255,0.05)"/>
  <text x="50" y="80" font-family="Arial, sans-serif" font-size="36" font-weight="bold" fill="white">户用光伏指南</text>
  <text x="50" y="120" font-family="Arial, sans-serif" font-size="20" fill="rgba(255,255,255,0.8)">家庭光伏安装全攻略</text>
  <rect x="50" y="160" width="350" height="200" rx="5" fill="rgba(255,255,255,0.2)" stroke="rgba(255,255,255,0.4)" stroke-width="2"/>
  <polygon points="225,180 280,220 280,300 170,300 170,220" fill="rgba(139,90,43,0.6)"/>
  <polygon points="225,160 300,210 150,210" fill="rgba(139,60,30,0.7)"/>
  <rect x="170" y="220" width="110" height="80" fill="rgba(0,168,107,0.5)" stroke="rgba(255,255,255,0.3)" stroke-width="1"/>
  <line x1="170" y1="240" x2="280" y2="240" stroke="rgba(0,0,0,0.2)" stroke-width="1"/>
  <line x1="170" y1="260" x2="280" y2="260" stroke="rgba(0,0,0,0.2)" stroke-width="1"/>
  <line x1="170" y1="280" x2="280" y2="280" stroke="rgba(0,0,0,0.2)" stroke-width="1"/>
  <line x1="195" y1="220" x2="195" y2="300" stroke="rgba(0,0,0,0.2)" stroke-width="1"/>
  <line x1="225" y1="220" x2="225" y2="300" stroke="rgba(0,0,0,0.2)" stroke-width="1"/>
  <line x1="255" y1="220" x2="255" y2="300" stroke="rgba(0,0,0,0.2)" stroke-width="1"/>
  <rect x="420" y="160" width="330" height="200" rx="10" fill="rgba(255,255,255,0.1)" stroke="rgba(255,255,255,0.2)" stroke-width="1"/>
  <text x="585" y="200" font-family="Arial, sans-serif" font-size="18" font-weight="bold" fill="white" text-anchor="middle">安装流程</text>
  <circle cx="460" cy="250" r="20" fill="rgba(255,215,0,0.5)"/>
  <text x="460" y="255" font-family="Arial, sans-serif" font-size="14" fill="white" text-anchor="middle">1</text>
  <text x="500" y="255" font-family="Arial, sans-serif" font-size="12" fill="white">项目备案</text>
  <circle cx="460" cy="300" r="20" fill="rgba(255,215,0,0.5)"/>
  <text x="460" y="305" font-family="Arial, sans-serif" font-size="14" fill="white" text-anchor="middle">2</text>
  <text x="500" y="305" font-family="Arial, sans-serif" font-size="12" fill="white">并网申请</text>
  <circle cx="580" cy="250" r="20" fill="rgba(255,215,0,0.5)"/>
  <text x="580" y="255" font-family="Arial, sans-serif" font-size="14" fill="white" text-anchor="middle">3</text>
  <text x="620" y="255" font-family="Arial, sans-serif" font-size="12" fill="white">设备安装</text>
  <circle cx="580" cy="300" r="20" fill="rgba(255,215,0,0.5)"/>
  <text x="580" y="305" font-family="Arial, sans-serif" font-size="14" fill="white" text-anchor="middle">4</text>
  <text x="620" y="305" font-family="Arial, sans-serif" font-size="12" fill="white">并网验收</text>
  <circle cx="700" cy="275" r="20" fill="rgba(0,212,170,0.6)"/>
  <text x="700" y="280" font-family="Arial, sans-serif" font-size="14" fill="white" text-anchor="middle">✓</text>
  <text x="700" y="310" font-family="Arial, sans-serif" font-size="12" fill="white" text-anchor="middle">开始发电</text>
  <rect x="50" y="390" width="700" height="80" rx="10" fill="rgba(255,255,255,0.1)" stroke="rgba(255,255,255,0.2)" stroke-width="1"/>
  <text x="160" y="430" font-family="Arial, sans-serif" font-size="14" fill="white" text-anchor="middle">投资回收期</text>
  <text x="160" y="455" font-family="Arial, sans-serif" font-size="20" font-weight="bold" fill="#FFD700" text-anchor="middle">5-7年</text>
  <text x="400" y="430" font-family="Arial, sans-serif" font-size="14" fill="white" text-anchor="middle">25年总收益</text>
  <text x="400" y="455" font-family="Arial, sans-serif" font-size="20" font-weight="bold" fill="#FFD700" text-anchor="middle">18-20万元</text>
  <text x="640" y="430" font-family="Arial, sans-serif" font-size="14" fill="white" text-anchor="middle">年减排CO₂</text>
  <text x="640" y="455" font-family="Arial, sans-serif" font-size="20" font-weight="bold" fill="#FFD700" text-anchor="middle">约10吨</text>
</svg>