<svg xmlns="http://www.w3.org/2000/svg" width="800" height="500" viewBox="0 0 800 500">
  <defs>
    <linearGradient id="bg5" x1="0%" y1="0%" x2="100%" y2="100%">
      <stop offset="0%" style="stop-color:#0f0c29;stop-opacity:1" />
      <stop offset="50%" style="stop-color:#302b63;stop-opacity:1" />
      <stop offset="100%" style="stop-color:#24243e;stop-opacity:1" />
    </linearGradient>
  </defs>
  <rect width="800" height="500" fill="url(#bg5)"/>
  <g transform="translate(550, 250)">
    <circle cx="0" cy="0" r="8" fill="#00D4AA"/>
    <circle cx="60" cy="-40" r="6" fill="#0066FF"/>
    <circle cx="80" cy="30" r="7" fill="#FF6B35"/>
    <circle cx="-50" cy="-60" r="5" fill="#00D4AA"/>
    <circle cx="-70" cy="40" r="6" fill="#0066FF"/>
    <line x1="0" y1="0" x2="60" y2="-40" stroke="rgba(0,212,170,0.5)" stroke-width="1"/>
    <line x1="0" y1="0" x2="80" y2="30" stroke="rgba(0,102,255,0.5)" stroke-width="1"/>
    <line x1="60" y1="-40" x2="80" y2="30" stroke="rgba(255,107,53,0.5)" stroke-width="1"/>
    <line x1="0" y1="0" x2="-50" y2="-60" stroke="rgba(0,212,170,0.5)" stroke-width="1"/>
    <line x1="0" y1="0" x2="-70" y2="40" stroke="rgba(0,102,255,0.5)" stroke-width="1"/>
    <line x1="-50" y1="-60" x2="-70" y2="40" stroke="rgba(255,107,53,0.5)" stroke-width="1"/>
  </g>
  <text x="50" y="100" font-family="Arial, sans-serif" font-size="42" font-weight="bold" fill="white">物联网技术</text>
  <text x="50" y="140" font-family="Arial, sans-serif" font-size="18" fill="rgba(255,255,255,0.7)">Internet of Things</text>
  <rect x="50" y="380" width="200" height="60" rx="10" fill="rgba(255,255,255,0.1)"/>
  <text x="70" y="418" font-family="Arial, sans-serif" font-size="16" fill="white">设备连接: 1,000,000+</text>
</svg>