<svg xmlns="http://www.w3.org/2000/svg" width="800" height="500" viewBox="0 0 800 500">
  <defs>
    <linearGradient id="bg8" x1="0%" y1="0%" x2="100%" y2="100%">
      <stop offset="0%" style="stop-color:#1e3c72;stop-opacity:1" />
      <stop offset="100%" style="stop-color:#2a5298;stop-opacity:1" />
    </linearGradient>
  </defs>
  <rect width="800" height="500" fill="url(#bg8)"/>
  <g transform="translate(550, 250)">
    <rect x="-50" y="-60" width="100" height="120" rx="10" fill="rgba(255,255,255,0.15)"/>
    <rect x="-40" y="-50" width="80" height="10" rx="3" fill="rgba(255,255,255,0.3)"/>
    <rect x="-40" y="-30" width="80" height="10" rx="3" fill="rgba(255,255,255,0.2)"/>
    <rect x="-40" y="-10" width="80" height="10" rx="3" fill="rgba(255,255,255,0.15)"/>
    <circle cx="30" cy="30" r="25" fill="rgba(0,212,170,0.8)"/>
    <path d="M20,30 L28,38 L42,22" stroke="white" stroke-width="3" fill="none"/>
  </g>
  <text x="50" y="100" font-family="Arial, sans-serif" font-size="42" font-weight="bold" fill="white">数据安全</text>
  <text x="50" y="140" font-family="Arial, sans-serif" font-size="18" fill="rgba(255,255,255,0.7)">Data Security</text>
  <g transform="translate(50, 350)">
    <rect x="0" y="0" width="60" height="60" rx="8" fill="rgba(255,255,255,0.1)"/>
    <path d="M30,15 L30,45 M15,30 L45,30" stroke="rgba(255,255,255,0.5)" stroke-width="2"/>
    <rect x="80" y="0" width="60" height="60" rx="8" fill="rgba(255,255,255,0.1)"/>
    <circle cx="110" cy="30" r="15" stroke="rgba(255,255,255,0.5)" stroke-width="2" fill="none"/>
    <rect x="160" y="0" width="60" height="60" rx="8" fill="rgba(255,255,255,0.1)"/>
    <path d="M190,20 L190,40 L205,30 Z" fill="rgba(255,255,255,0.5)"/>
  </g>
</svg>