<svg xmlns="http://www.w3.org/2000/svg" width="800" height="500" viewBox="0 0 800 500">
  <defs>
    <linearGradient id="bg4" x1="0%" y1="0%" x2="100%" y2="100%">
      <stop offset="0%" style="stop-color:#11998e;stop-opacity:1" />
      <stop offset="100%" style="stop-color:#38ef7d;stop-opacity:1" />
    </linearGradient>
  </defs>
  <rect width="800" height="500" fill="url(#bg4)"/>
  <g transform="translate(550, 200)">
    <ellipse cx="0" cy="50" rx="100" ry="30" fill="rgba(255,255,255,0.2)"/>
    <path d="M-80,50 L-80,-50 Q0,-100 80,-50 L80,50" fill="rgba(255,255,255,0.3)"/>
    <path d="M-60,50 L-60,-30 Q0,-70 60,-30 L60,50" fill="rgba(255,255,255,0.4)"/>
    <ellipse cx="0" cy="-50" rx="80" ry="20" fill="rgba(255,255,255,0.5)"/>
  </g>
  <text x="50" y="100" font-family="Arial, sans-serif" font-size="42" font-weight="bold" fill="white">云计算服务</text>
  <text x="50" y="140" font-family="Arial, sans-serif" font-size="18" fill="rgba(255,255,255,0.7)">Cloud Computing Services</text>
  <g transform="translate(50, 350)">
    <circle cx="20" cy="20" r="15" fill="rgba(255,255,255,0.3)"/>
    <circle cx="60" cy="20" r="15" fill="rgba(255,255,255,0.5)"/>
    <circle cx="100" cy="20" r="15" fill="rgba(255,255,255,0.7)"/>
    <line x1="35" y1="20" x2="45" y2="20" stroke="white" stroke-width="2"/>
    <line x1="75" y1="20" x2="85" y2="20" stroke="white" stroke-width="2"/>
  </g>
</svg>