<svg xmlns="http://www.w3.org/2000/svg" width="800" height="500" viewBox="0 0 800 500">
  <defs>
    <linearGradient id="bg3" x1="0%" y1="0%" x2="100%" y2="100%">
      <stop offset="0%" style="stop-color:#00A86B;stop-opacity:1" />
      <stop offset="100%" style="stop-color:#006B4A;stop-opacity:1" />
    </linearGradient>
  </defs>
  <rect width="800" height="500" fill="url(#bg3)"/>
  <circle cx="650" cy="150" r="120" fill="rgba(255,255,255,0.08)"/>
  <circle cx="100" cy="400" r="100" fill="rgba(255,255,255,0.05)"/>
  <text x="50" y="80" font-family="Arial, sans-serif" font-size="36" font-weight="bold" fill="white">光伏电站运维</text>
  <text x="50" y="120" font-family="Arial, sans-serif" font-size="20" fill="rgba(255,255,255,0.8)">专业运维 · 高效发电</text>
  <rect x="50" y="160" width="300" height="180" rx="5" fill="rgba(255,255,255,0.15)" stroke="rgba(255,255,255,0.3)" stroke-width="1"/>
  <rect x="60" y="170" width="50" height="35" fill="rgba(0,0,0,0.2)"/>
  <rect x="115" y="170" width="50" height="35" fill="rgba(0,0,0,0.2)"/>
  <rect x="170" y="170" width="50" height="35" fill="rgba(0,0,0,0.2)"/>
  <rect x="225" y="170" width="50" height="35" fill="rgba(0,0,0,0.2)"/>
  <rect x="280" y="170" width="60" height="35" fill="rgba(0,0,0,0.2)"/>
  <rect x="60" y="210" width="50" height="35" fill="rgba(0,0,0,0.2)"/>
  <rect x="115" y="210" width="50" height="35" fill="rgba(0,0,0,0.2)"/>
  <rect x="170" y="210" width="50" height="35" fill="rgba(0,0,0,0.2)"/>
  <rect x="225" y="210" width="50" height="35" fill="rgba(0,0,0,0.2)"/>
  <rect x="280" y="210" width="60" height="35" fill="rgba(0,0,0,0.2)"/>
  <rect x="60" y="250" width="50" height="35" fill="rgba(0,0,0,0.2)"/>
  <rect x="115" y="250" width="50" height="35" fill="rgba(0,0,0,0.2)"/>
  <rect x="170" y="250" width="50" height="35" fill="rgba(0,0,0,0.2)"/>
  <rect x="225" y="250" width="50" height="35" fill="rgba(0,0,0,0.2)"/>
  <rect x="280" y="250" width="60" height="35" fill="rgba(0,0,0,0.2)"/>
  <rect x="60" y="290" width="50" height="40" fill="rgba(0,0,0,0.2)"/>
  <rect x="115" y="290" width="50" height="40" fill="rgba(0,0,0,0.2)"/>
  <rect x="170" y="290" width="50" height="40" fill="rgba(0,0,0,0.2)"/>
  <rect x="225" y="290" width="50" height="40" fill="rgba(0,0,0,0.2)"/>
  <rect x="280" y="290" width="60" height="40" fill="rgba(0,0,0,0.2)"/>
  <rect x="400" y="160" width="350" height="300" rx="10" fill="rgba(255,255,255,0.1)" stroke="rgba(255,255,255,0.2)" stroke-width="1"/>
  <text x="575" y="200" font-family="Arial, sans-serif" font-size="18" font-weight="bold" fill="white" text-anchor="middle">智能运维平台</text>
  <rect x="420" y="220" width="150" height="60" rx="5" fill="rgba(0,212,170,0.4)"/>
  <text x="495" y="255" font-family="Arial, sans-serif" font-size="14" fill="white" text-anchor="middle">实时监控</text>
  <rect x="580" y="220" width="150" height="60" rx="5" fill="rgba(255,215,0,0.4)"/>
  <text x="655" y="255" font-family="Arial, sans-serif" font-size="14" fill="white" text-anchor="middle">故障诊断</text>
  <rect x="420" y="290" width="150" height="60" rx="5" fill="rgba(0,168,107,0.4)"/>
  <text x="495" y="325" font-family="Arial, sans-serif" font-size="14" fill="white" text-anchor="middle">数据分析</text>
  <rect x="580" y="290" width="150" height="60" rx="5" fill="rgba(46,80,119,0.5)"/>
  <text x="655" y="325" font-family="Arial, sans-serif" font-size="14" fill="white" text-anchor="middle">远程控制</text>
  <rect x="420" y="360" width="310" height="80" rx="5" fill="rgba(255,255,255,0.1)"/>
  <text x="575" y="395" font-family="Arial, sans-serif" font-size="14" fill="white" text-anchor="middle">发电量统计 | 效率分析 | 运维工单</text>
  <text x="575" y="420" font-family="Arial, sans-serif" font-size="14" fill="white" text-anchor="middle">报警推送 | 报表导出 | 移动端APP</text>
</svg>